# xmcd
#
# Track frame offsets: 
#        150
#        13286
#        23967
#        37817
#        54692
#        70273
#        87091
#        107014
#        121983
#        146876
#        163961
#
# Disc length: 2471 seconds
#
# Revision: 0
# Processed by: cddbd v1.5.2PL0 Copyright (c) Steve Scherf et al.
# Submitted via: ExactAudioCopy v0.99pb4
#
DISCID=9809a50b
DTITLE=Various Artist - The Bluegrass Tribute to Bon Jovi
DYEAR=2006
DGENRE=Bluegrass
TTITLE0=You Give Love a Bad Name
TTITLE1=Bad Medicin
TTITLE2=Runaway
TTITLE3=I'll Be There For You
TTITLE4=Keep the Faith
TTITLE5=Livin' on a Prayer
TTITLE6=Never Say Goodbye
TTITLE7=Lay Your Hands on Me
TTITLE8=Blaze of Glory
TTITLE9=It's My Life
TTITLE10=Wanted Dead or Alive
EXTD=
EXTT0=
EXTT1=
EXTT2=
EXTT3=
EXTT4=
EXTT5=
EXTT6=
EXTT7=
EXTT8=
EXTT9=
EXTT10=
PLAYORDER=
